<svg id="visual" viewBox="0 0 900 600" width="900" height="600" xmlns="http://www.w3.org/2000/svg" xmlns:xlink="http://www.w3.org/1999/xlink" version="1.1"><rect x="0" y="0" width="900" height="600" fill="#121212"></rect><path d="M523 0L521.5 14.3C520 28.7 517 57.3 494.8 85.8C472.7 114.3 431.3 142.7 427.5 171.2C423.7 199.7 457.3 228.3 461.3 257C465.3 285.7 439.7 314.3 415.7 343C391.7 371.7 369.3 400.3 363 428.8C356.7 457.3 366.3 485.7 376.2 514.2C386 542.7 396 571.3 401 585.7L406 600L0 600L0 585.7C0 571.3 0 542.7 0 514.2C0 485.7 0 457.3 0 428.8C0 400.3 0 371.7 0 343C0 314.3 0 285.7 0 257C0 228.3 0 199.7 0 171.2C0 142.7 0 114.3 0 85.8C0 57.3 0 28.7 0 14.3L0 0Z" fill="#fa7268"></path><path d="M364 0L371.5 14.3C379 28.7 394 57.3 389.2 85.8C384.3 114.3 359.7 142.7 350.7 171.2C341.7 199.7 348.3 228.3 362.2 257C376 285.7 397 314.3 388.5 343C380 371.7 342 400.3 340.8 428.8C339.7 457.3 375.3 485.7 395 514.2C414.7 542.7 418.3 571.3 420.2 585.7L422 600L0 600L0 585.7C0 571.3 0 542.7 0 514.2C0 485.7 0 457.3 0 428.8C0 400.3 0 371.7 0 343C0 314.3 0 285.7 0 257C0 228.3 0 199.7 0 171.2C0 142.7 0 114.3 0 85.8C0 57.3 0 28.7 0 14.3L0 0Z" fill="#f16367"></path><path d="M307 0L313.7 14.3C320.3 28.7 333.7 57.3 328.5 85.8C323.3 114.3 299.7 142.7 289.2 171.2C278.7 199.7 281.3 228.3 285.7 257C290 285.7 296 314.3 305 343C314 371.7 326 400.3 332.2 428.8C338.3 457.3 338.7 485.7 324.5 514.2C310.3 542.7 281.7 571.3 267.3 585.7L253 600L0 600L0 585.7C0 571.3 0 542.7 0 514.2C0 485.7 0 457.3 0 428.8C0 400.3 0 371.7 0 343C0 314.3 0 285.7 0 257C0 228.3 0 199.7 0 171.2C0 142.7 0 114.3 0 85.8C0 57.3 0 28.7 0 14.3L0 0Z" fill="#e85467"></path><path d="M196 0L195.7 14.3C195.3 28.7 194.7 57.3 199.8 85.8C205 114.3 216 142.7 226 171.2C236 199.7 245 228.3 244 257C243 285.7 232 314.3 233.3 343C234.7 371.7 248.3 400.3 240.8 428.8C233.3 457.3 204.7 485.7 191.3 514.2C178 542.7 180 571.3 181 585.7L182 600L0 600L0 585.7C0 571.3 0 542.7 0 514.2C0 485.7 0 457.3 0 428.8C0 400.3 0 371.7 0 343C0 314.3 0 285.7 0 257C0 228.3 0 199.7 0 171.2C0 142.7 0 114.3 0 85.8C0 57.3 0 28.7 0 14.3L0 0Z" fill="#de4467"></path><path d="M127 0L130.7 14.3C134.3 28.7 141.7 57.3 146.2 85.8C150.7 114.3 152.3 142.7 151.7 171.2C151 199.7 148 228.3 147 257C146 285.7 147 314.3 157.2 343C167.3 371.7 186.7 400.3 193.7 428.8C200.7 457.3 195.3 485.7 191.2 514.2C187 542.7 184 571.3 182.5 585.7L181 600L0 600L0 585.7C0 571.3 0 542.7 0 514.2C0 485.7 0 457.3 0 428.8C0 400.3 0 371.7 0 343C0 314.3 0 285.7 0 257C0 228.3 0 199.7 0 171.2C0 142.7 0 114.3 0 85.8C0 57.3 0 28.7 0 14.3L0 0Z" fill="#d23467"></path><path d="M61 0L60.8 14.3C60.7 28.7 60.3 57.3 64 85.8C67.7 114.3 75.3 142.7 74.8 171.2C74.3 199.7 65.7 228.3 64 257C62.3 285.7 67.7 314.3 79.3 343C91 371.7 109 400.3 114.8 428.8C120.7 457.3 114.3 485.7 104.5 514.2C94.7 542.7 81.3 571.3 74.7 585.7L68 600L0 600L0 585.7C0 571.3 0 542.7 0 514.2C0 485.7 0 457.3 0 428.8C0 400.3 0 371.7 0 343C0 314.3 0 285.7 0 257C0 228.3 0 199.7 0 171.2C0 142.7 0 114.3 0 85.8C0 57.3 0 28.7 0 14.3L0 0Z" fill="#c62368"></path></svg>
